<svg xmlns="http://www.w3.org/2000/svg" version="1.1" xmlns:xlink="http://www.w3.org/1999/xlink" xmlns:svgjs="http://svgjs.dev/svgjs" width="1500" height="1500" viewBox="0 0 1500 1500"><rect width="1500" height="1500" fill="#000000"></rect><g transform="matrix(0.6666666666666666,0,0,0.6666666666666666,249.39393939393938,435.99032258064517)"><svg viewBox="0 0 396 248" data-background-color="#ffffff" preserveAspectRatio="xMidYMid meet" height="939" width="1500" xmlns="http://www.w3.org/2000/svg" xmlns:xlink="http://www.w3.org/1999/xlink"><g id="tight-bounds" transform="matrix(1,0,0,1,0.2400000000000091,0.4000000000000057)"><svg viewBox="0 0 395.52 247.2" height="247.2" width="395.52"><g><svg></svg></g><g><svg viewBox="0 0 395.52 247.2" height="247.2" width="395.52"><g transform="matrix(1,0,0,1,75.54432,113.42747015457788)"><svg viewBox="0 0 244.43135999999998 20.34505969084423" height="20.34505969084423" width="244.43135999999998"><g><svg viewBox="0 0 244.43135999999998 20.34505969084423" height="20.34505969084423" width="244.43135999999998"><g><svg viewBox="0 0 244.43135999999998 20.34505969084423" height="20.34505969084423" width="244.43135999999998"><g id="textblocktransform"><svg viewBox="0 0 244.43135999999998 20.34505969084423" height="20.34505969084423" width="244.43135999999998" id="textblock"><g><svg viewBox="0 0 244.43135999999998 20.34505969084423" height="20.34505969084423" width="244.43135999999998"><g transform="matrix(1,0,0,1,0,0)"><svg width="244.43135999999998" viewBox="1.7999999999999998 -28 336.36 28" height="20.34505969084423" data-palette-color="#000000"><path d="M18.2-6Q18.2-4.85 18-4L18-4Q18.2-3.2 18.2-2L18.2-2Q18.2-0.85 18 0L18 0 14 0Q13.8-0.85 13.8-2L13.8-2Q13.8-3.2 14-4L14-4Q13.8-4.85 13.8-6L13.8-6Q13.8-7.2 14-8L14-8 6-8Q6.2-7.2 6.2-6L6.2-6Q6.2-4.85 6-4L6-4Q6.2-3.2 6.2-2L6.2-2Q6.2-0.85 6 0L6 0 2 0Q1.8-0.85 1.8-2L1.8-2Q1.8-3.2 2-4L2-4Q1.8-4.85 1.8-6L1.8-6Q1.8-7.2 2-8L2-8 3.5-8Q3.3-8.85 3.3-10L3.3-10Q3.3-11.2 3.5-12L3.5-12Q3.3-12.85 3.3-14L3.3-14Q3.3-15.2 3.5-16L3.5-16 4.5-16Q4.3-16.85 4.3-18L4.3-18Q4.3-19.2 4.5-20L4.5-20 6-20Q5.8-20.85 5.8-22L5.8-22Q5.8-23.2 6-24L6-24 7-24Q6.8-24.85 6.8-26L6.8-26Q6.8-27.2 7-28L7-28 13-28Q13.2-27.2 13.2-26L13.2-26Q13.2-24.85 13-24L13-24 14-24Q14.2-23.2 14.2-22L14.2-22Q14.2-20.85 14-20L14-20 15.5-20Q15.7-19.2 15.7-18L15.7-18Q15.7-16.85 15.5-16L15.5-16 16.5-16Q16.7-15.2 16.7-14L16.7-14Q16.7-12.85 16.5-12L16.5-12Q16.7-11.2 16.7-10L16.7-10Q16.7-8.85 16.5-8L16.5-8 18-8Q18.2-7.2 18.2-6L18.2-6ZM12.5-12Q12.3-12.85 12.3-14L12.3-14Q12.3-15.2 12.5-16L12.5-16 11.5-16Q11.3-16.85 11.3-18L11.3-18Q11.3-19.2 11.5-20L11.5-20 8.5-20Q8.7-19.2 8.7-18L8.7-18Q8.7-16.85 8.5-16L8.5-16 7.5-16Q7.7-15.2 7.7-14L7.7-14Q7.7-12.85 7.5-12L7.5-12 12.5-12ZM38-24Q38.2-23.2 38.2-22L38.2-22Q38.2-20.85 38-20L38-20Q38.2-19.2 38.2-18L38.2-18Q38.2-16.85 38-16L38-16Q38.2-15.2 38.2-14L38.2-14Q38.2-12.85 38-12L38-12Q38.2-11.2 38.2-10L38.2-10Q38.2-8.85 38-8L38-8Q38.2-7.2 38.2-6L38.2-6Q38.2-4.85 38-4L38-4Q38.2-3.2 38.2-2L38.2-2Q38.2-0.85 38 0L38 0 34 0Q33.8-0.85 33.8-2L33.8-2Q33.8-3.2 34-4L34-4 31.5-4Q31.3-4.85 31.3-6L31.3-6Q31.3-7.2 31.5-8L31.5-8 30-8Q29.8-8.85 29.8-10L29.8-10Q29.8-11.2 30-12L30-12 28-12Q27.8-12.85 27.8-14L27.8-14Q27.8-15.2 28-16L28-16 26-16Q26.2-15.2 26.2-14L26.2-14Q26.2-12.85 26-12L26-12Q26.2-11.2 26.2-10L26.2-10Q26.2-8.85 26-8L26-8Q26.2-7.2 26.2-6L26.2-6Q26.2-4.85 26-4L26-4Q26.2-3.2 26.2-2L26.2-2Q26.2-0.85 26 0L26 0 22 0Q21.8-0.85 21.8-2L21.8-2Q21.8-3.2 22-4L22-4Q21.8-4.85 21.8-6L21.8-6Q21.8-7.2 22-8L22-8Q21.8-8.85 21.8-10L21.8-10Q21.8-11.2 22-12L22-12Q21.8-12.85 21.8-14L21.8-14Q21.8-15.2 22-16L22-16Q21.8-16.85 21.8-18L21.8-18Q21.8-19.2 22-20L22-20Q21.8-20.85 21.8-22L21.8-22Q21.8-23.2 22-24L22-24Q21.8-24.85 21.8-26L21.8-26Q21.8-27.2 22-28L22-28 27-28Q27.2-27.2 27.2-26L27.2-26Q27.2-24.85 27-24L27-24 28.5-24Q28.7-23.2 28.7-22L28.7-22Q28.7-20.85 28.5-20L28.5-20 30-20Q30.2-19.2 30.2-18L30.2-18Q30.2-16.85 30-16L30-16 32-16Q32.2-15.2 32.2-14L32.2-14Q32.2-12.85 32-12L32-12 34-12Q33.8-12.85 33.8-14L33.8-14Q33.8-15.2 34-16L34-16Q33.8-16.85 33.8-18L33.8-18Q33.8-19.2 34-20L34-20Q33.8-20.85 33.8-22L33.8-22Q33.8-23.2 34-24L34-24Q33.8-24.85 33.8-26L33.8-26Q33.8-27.2 34-28L34-28 38-28Q38.2-27.2 38.2-26L38.2-26Q38.2-24.85 38-24L38-24ZM58-16Q58.2-15.2 58.2-14L58.2-14Q58.2-12.85 58-12L58-12Q58.2-11.2 58.2-10L58.2-10Q58.2-8.85 58-8L58-8Q58.2-7.2 58.2-6L58.2-6Q58.2-4.85 58-4L58-4 56-4Q56.2-3.2 56.2-2L56.2-2Q56.2-0.85 56 0L56 0 46 0Q45.8-0.85 45.8-2L45.8-2Q45.8-3.2 46-4L46-4 44-4Q43.8-4.85 43.8-6L43.8-6Q43.8-7.2 44-8L44-8 42-8Q41.8-8.85 41.8-10L41.8-10Q41.8-11.2 42-12L42-12Q41.8-12.85 41.8-14L41.8-14Q41.8-15.2 42-16L42-16Q41.8-16.85 41.8-18L41.8-18Q41.8-19.2 42-20L42-20 44-20Q43.8-20.85 43.8-22L43.8-22Q43.8-23.2 44-24L44-24 46-24Q45.8-24.85 45.8-26L45.8-26Q45.8-27.2 46-28L46-28 56-28Q56.2-27.2 56.2-26L56.2-26Q56.2-24.85 56-24L56-24 58-24Q58.2-23.2 58.2-22L58.2-22Q58.2-20.85 58-20L58-20 54-20Q53.8-20.85 53.8-22L53.8-22Q53.8-23.2 54-24L54-24 48-24Q48.2-23.2 48.2-22L48.2-22Q48.2-20.85 48-20L48-20 46-20Q46.2-19.2 46.2-18L46.2-18Q46.2-16.85 46-16L46-16Q46.2-15.2 46.2-14L46.2-14Q46.2-12.85 46-12L46-12Q46.2-11.2 46.2-10L46.2-10Q46.2-8.85 46-8L46-8 48-8Q48.2-7.2 48.2-6L48.2-6Q48.2-4.85 48-4L48-4 54-4Q53.8-4.85 53.8-6L53.8-6Q53.8-7.2 54-8L54-8Q53.8-8.85 53.8-10L53.8-10Q53.8-11.2 54-12L54-12 51-12Q50.8-12.85 50.8-14L50.8-14Q50.8-15.2 51-16L51-16 58-16ZM75.99-12L67.99-12Q68.19-11.2 68.19-10L68.19-10Q68.19-8.85 67.99-8L67.99-8Q68.19-7.2 68.19-6L68.19-6Q68.19-4.85 67.99-4L67.99-4 75.99-4Q76.19-3.2 76.19-2L76.19-2Q76.19-0.85 75.99 0L75.99 0 63.99 0Q63.79-0.85 63.79-2L63.79-2Q63.79-3.2 63.99-4L63.99-4Q63.79-4.85 63.79-6L63.79-6Q63.79-7.2 63.99-8L63.99-8Q63.79-8.85 63.79-10L63.79-10Q63.79-11.2 63.99-12L63.99-12Q63.79-12.85 63.79-14L63.79-14Q63.79-15.2 63.99-16L63.99-16Q63.79-16.85 63.79-18L63.79-18Q63.79-19.2 63.99-20L63.99-20Q63.79-20.85 63.79-22L63.79-22Q63.79-23.2 63.99-24L63.99-24Q63.79-24.85 63.79-26L63.79-26Q63.79-27.2 63.99-28L63.99-28 75.99-28Q76.19-27.2 76.19-26L76.19-26Q76.19-24.85 75.99-24L75.99-24 67.99-24Q68.19-23.2 68.19-22L68.19-22Q68.19-20.85 67.99-20L67.99-20Q68.19-19.2 68.19-18L68.19-18Q68.19-16.85 67.99-16L67.99-16 75.99-16Q76.19-15.2 76.19-14L76.19-14Q76.19-12.85 75.99-12L75.99-12ZM97.99-4Q98.19-3.2 98.19-2L98.19-2Q98.19-0.85 97.99 0L97.99 0 83.99 0Q83.79-0.85 83.79-2L83.79-2Q83.79-3.2 83.99-4L83.99-4Q83.79-4.85 83.79-6L83.79-6Q83.79-7.2 83.99-8L83.99-8Q83.79-8.85 83.79-10L83.79-10Q83.79-11.2 83.99-12L83.99-12Q83.79-12.85 83.79-14L83.79-14Q83.79-15.2 83.99-16L83.99-16Q83.79-16.85 83.79-18L83.79-18Q83.79-19.2 83.99-20L83.99-20Q83.79-20.85 83.79-22L83.79-22Q83.79-23.2 83.99-24L83.99-24Q83.79-24.85 83.79-26L83.79-26Q83.79-27.2 83.99-28L83.99-28 87.99-28Q88.19-27.2 88.19-26L88.19-26Q88.19-24.85 87.99-24L87.99-24Q88.19-23.2 88.19-22L88.19-22Q88.19-20.85 87.99-20L87.99-20Q88.19-19.2 88.19-18L88.19-18Q88.19-16.85 87.99-16L87.99-16Q88.19-15.2 88.19-14L88.19-14Q88.19-12.85 87.99-12L87.99-12Q88.19-11.2 88.19-10L88.19-10Q88.19-8.85 87.99-8L87.99-8Q88.19-7.2 88.19-6L88.19-6Q88.19-4.85 87.99-4L87.99-4 97.99-4ZM137.99-24Q138.19-23.2 138.19-22L138.19-22Q138.19-20.85 137.99-20L137.99-20Q138.19-19.2 138.19-18L138.19-18Q138.19-16.85 137.99-16L137.99-16Q138.19-15.2 138.19-14L138.19-14Q138.19-12.85 137.99-12L137.99-12Q138.19-11.2 138.19-10L138.19-10Q138.19-8.85 137.99-8L137.99-8Q138.19-7.2 138.19-6L138.19-6Q138.19-4.85 137.99-4L137.99-4 135.99-4Q136.19-3.2 136.19-2L136.19-2Q136.19-0.85 135.99 0L135.99 0 123.99 0Q123.79-0.85 123.79-2L123.79-2Q123.79-3.2 123.99-4L123.99-4 121.99-4Q121.79-4.85 121.79-6L121.79-6Q121.79-7.2 121.99-8L121.99-8Q121.79-8.85 121.79-10L121.79-10Q121.79-11.2 121.99-12L121.99-12Q121.79-12.85 121.79-14L121.79-14Q121.79-15.2 121.99-16L121.99-16Q121.79-16.85 121.79-18L121.79-18Q121.79-19.2 121.99-20L121.99-20Q121.79-20.85 121.79-22L121.79-22Q121.79-23.2 121.99-24L121.99-24Q121.79-24.85 121.79-26L121.79-26Q121.79-27.2 121.99-28L121.99-28 125.99-28Q126.19-27.2 126.19-26L126.19-26Q126.19-24.85 125.99-24L125.99-24Q126.19-23.2 126.19-22L126.19-22Q126.19-20.85 125.99-20L125.99-20Q126.19-19.2 126.19-18L126.19-18Q126.19-16.85 125.99-16L125.99-16Q126.19-15.2 126.19-14L126.19-14Q126.19-12.85 125.99-12L125.99-12Q126.19-11.2 126.19-10L126.19-10Q126.19-8.85 125.99-8L125.99-8Q126.19-7.2 126.19-6L126.19-6Q126.19-4.85 125.99-4L125.99-4 133.99-4Q133.79-4.85 133.79-6L133.79-6Q133.79-7.2 133.99-8L133.99-8Q133.79-8.85 133.79-10L133.79-10Q133.79-11.2 133.99-12L133.99-12Q133.79-12.85 133.79-14L133.79-14Q133.79-15.2 133.99-16L133.99-16Q133.79-16.85 133.79-18L133.79-18Q133.79-19.2 133.99-20L133.99-20Q133.79-20.85 133.79-22L133.79-22Q133.79-23.2 133.99-24L133.99-24Q133.79-24.85 133.79-26L133.79-26Q133.79-27.2 133.99-28L133.99-28 137.99-28Q138.19-27.2 138.19-26L138.19-26Q138.19-24.85 137.99-24L137.99-24ZM157.98-24Q158.18-23.2 158.18-22L158.18-22Q158.18-20.85 157.98-20L157.98-20Q158.18-19.2 158.18-18L158.18-18Q158.18-16.85 157.98-16L157.98-16Q158.18-15.2 158.18-14L158.18-14Q158.18-12.85 157.98-12L157.98-12Q158.18-11.2 158.18-10L158.18-10Q158.18-8.85 157.98-8L157.98-8Q158.18-7.2 158.18-6L158.18-6Q158.18-4.85 157.98-4L157.98-4Q158.18-3.2 158.18-2L158.18-2Q158.18-0.85 157.98 0L157.98 0 153.98 0Q153.78-0.85 153.78-2L153.78-2Q153.78-3.2 153.98-4L153.98-4 151.48-4Q151.28-4.85 151.28-6L151.28-6Q151.28-7.2 151.48-8L151.48-8 149.98-8Q149.78-8.85 149.78-10L149.78-10Q149.78-11.2 149.98-12L149.98-12 147.98-12Q147.78-12.85 147.78-14L147.78-14Q147.78-15.2 147.98-16L147.98-16 145.98-16Q146.18-15.2 146.18-14L146.18-14Q146.18-12.85 145.98-12L145.98-12Q146.18-11.2 146.18-10L146.18-10Q146.18-8.85 145.98-8L145.98-8Q146.18-7.2 146.18-6L146.18-6Q146.18-4.85 145.98-4L145.98-4Q146.18-3.2 146.18-2L146.18-2Q146.18-0.85 145.98 0L145.98 0 141.98 0Q141.78-0.85 141.78-2L141.78-2Q141.78-3.2 141.98-4L141.98-4Q141.78-4.85 141.78-6L141.78-6Q141.78-7.2 141.98-8L141.98-8Q141.78-8.85 141.78-10L141.78-10Q141.78-11.2 141.98-12L141.98-12Q141.78-12.85 141.78-14L141.78-14Q141.78-15.2 141.98-16L141.98-16Q141.78-16.85 141.78-18L141.78-18Q141.78-19.2 141.98-20L141.98-20Q141.78-20.85 141.78-22L141.78-22Q141.78-23.2 141.98-24L141.98-24Q141.78-24.85 141.78-26L141.78-26Q141.78-27.2 141.98-28L141.98-28 146.98-28Q147.18-27.2 147.18-26L147.18-26Q147.18-24.85 146.98-24L146.98-24 148.48-24Q148.68-23.2 148.68-22L148.68-22Q148.68-20.85 148.48-20L148.48-20 149.98-20Q150.18-19.2 150.18-18L150.18-18Q150.18-16.85 149.98-16L149.98-16 151.98-16Q152.18-15.2 152.18-14L152.18-14Q152.18-12.85 151.98-12L151.98-12 153.98-12Q153.78-12.85 153.78-14L153.78-14Q153.78-15.2 153.98-16L153.98-16Q153.78-16.85 153.78-18L153.78-18Q153.78-19.2 153.98-20L153.98-20Q153.78-20.85 153.78-22L153.78-22Q153.78-23.2 153.98-24L153.98-24Q153.78-24.85 153.78-26L153.78-26Q153.78-27.2 153.98-28L153.98-28 157.98-28Q158.18-27.2 158.18-26L158.18-26Q158.18-24.85 157.98-24L157.98-24ZM177.98-16Q178.18-15.2 178.18-14L178.18-14Q178.18-12.85 177.98-12L177.98-12Q178.18-11.2 178.18-10L178.18-10Q178.18-8.85 177.98-8L177.98-8 175.98-8Q176.18-7.2 176.18-6L176.18-6Q176.18-4.85 175.98-4L175.98-4 173.98-4Q174.18-3.2 174.18-2L174.18-2Q174.18-0.85 173.98 0L173.98 0 161.98 0Q161.78-0.85 161.78-2L161.78-2Q161.78-3.2 161.98-4L161.98-4Q161.78-4.85 161.78-6L161.78-6Q161.78-7.2 161.98-8L161.98-8Q161.78-8.85 161.78-10L161.78-10Q161.78-11.2 161.98-12L161.98-12Q161.78-12.85 161.78-14L161.78-14Q161.78-15.2 161.98-16L161.98-16Q161.78-16.85 161.78-18L161.78-18Q161.78-19.2 161.98-20L161.98-20Q161.78-20.85 161.78-22L161.78-22Q161.78-23.2 161.98-24L161.98-24Q161.78-24.85 161.78-26L161.78-26Q161.78-27.2 161.98-28L161.98-28 173.98-28Q174.18-27.2 174.18-26L174.18-26Q174.18-24.85 173.98-24L173.98-24 175.98-24Q176.18-23.2 176.18-22L176.18-22Q176.18-20.85 175.98-20L175.98-20 177.98-20Q178.18-19.2 178.18-18L178.18-18Q178.18-16.85 177.98-16L177.98-16ZM173.98-8Q173.78-8.85 173.78-10L173.78-10Q173.78-11.2 173.98-12L173.98-12Q173.78-12.85 173.78-14L173.78-14Q173.78-15.2 173.98-16L173.98-16Q173.78-16.85 173.78-18L173.78-18Q173.78-19.2 173.98-20L173.98-20 171.98-20Q171.78-20.85 171.78-22L171.78-22Q171.78-23.2 171.98-24L171.98-24 165.98-24Q166.18-23.2 166.18-22L166.18-22Q166.18-20.85 165.98-20L165.98-20Q166.18-19.2 166.18-18L166.18-18Q166.18-16.85 165.98-16L165.98-16Q166.18-15.2 166.18-14L166.18-14Q166.18-12.85 165.98-12L165.98-12Q166.18-11.2 166.18-10L166.18-10Q166.18-8.85 165.98-8L165.98-8Q166.18-7.2 166.18-6L166.18-6Q166.18-4.85 165.98-4L165.98-4 171.98-4Q171.78-4.85 171.78-6L171.78-6Q171.78-7.2 171.98-8L171.98-8 173.98-8ZM195.98-12L187.98-12Q188.18-11.2 188.18-10L188.18-10Q188.18-8.85 187.98-8L187.98-8Q188.18-7.2 188.18-6L188.18-6Q188.18-4.85 187.98-4L187.98-4 195.98-4Q196.18-3.2 196.18-2L196.18-2Q196.18-0.85 195.98 0L195.98 0 183.98 0Q183.78-0.85 183.78-2L183.78-2Q183.78-3.2 183.98-4L183.98-4Q183.78-4.85 183.78-6L183.78-6Q183.78-7.2 183.98-8L183.98-8Q183.78-8.85 183.78-10L183.78-10Q183.78-11.2 183.98-12L183.98-12Q183.78-12.85 183.78-14L183.78-14Q183.78-15.2 183.98-16L183.98-16Q183.78-16.85 183.78-18L183.78-18Q183.78-19.2 183.98-20L183.98-20Q183.78-20.85 183.78-22L183.78-22Q183.78-23.2 183.98-24L183.98-24Q183.78-24.85 183.78-26L183.78-26Q183.78-27.2 183.98-28L183.98-28 195.98-28Q196.18-27.2 196.18-26L196.18-26Q196.18-24.85 195.98-24L195.98-24 187.98-24Q188.18-23.2 188.18-22L188.18-22Q188.18-20.85 187.98-20L187.98-20Q188.18-19.2 188.18-18L188.18-18Q188.18-16.85 187.98-16L187.98-16 195.98-16Q196.18-15.2 196.18-14L196.18-14Q196.18-12.85 195.98-12L195.98-12ZM217.98-24Q218.18-23.2 218.18-22L218.18-22Q218.18-20.85 217.98-20L217.98-20Q218.18-19.2 218.18-18L218.18-18Q218.18-16.85 217.98-16L217.98-16 216.48-16Q216.68-15.2 216.68-14L216.68-14Q216.68-12.85 216.48-12L216.48-12 214.98-12Q215.18-11.2 215.18-10L215.18-10Q215.18-8.85 214.98-8L214.98-8 213.98-8Q214.18-7.2 214.18-6L214.18-6Q214.18-4.85 213.98-4L213.98-4 211.98-4Q212.18-3.2 212.18-2L212.18-2Q212.18-0.85 211.98 0L211.98 0 207.98 0Q207.78-0.85 207.78-2L207.78-2Q207.78-3.2 207.98-4L207.98-4 205.98-4Q205.78-4.85 205.78-6L205.78-6Q205.78-7.2 205.98-8L205.98-8 204.98-8Q204.78-8.85 204.78-10L204.78-10Q204.78-11.2 204.98-12L204.98-12 203.48-12Q203.28-12.85 203.28-14L203.28-14Q203.28-15.2 203.48-16L203.48-16 201.98-16Q201.78-16.85 201.78-18L201.78-18Q201.78-19.2 201.98-20L201.98-20Q201.78-20.85 201.78-22L201.78-22Q201.78-23.2 201.98-24L201.98-24Q201.78-24.85 201.78-26L201.78-26Q201.78-27.2 201.98-28L201.98-28 205.98-28Q206.18-27.2 206.18-26L206.18-26Q206.18-24.85 205.98-24L205.98-24Q206.18-23.2 206.18-22L206.18-22Q206.18-20.85 205.98-20L205.98-20Q206.18-19.2 206.18-18L206.18-18Q206.18-16.85 205.98-16L205.98-16 207.48-16Q207.68-15.2 207.68-14L207.68-14Q207.68-12.85 207.48-12L207.48-12 208.98-12Q209.18-11.2 209.18-10L209.18-10Q209.18-8.85 208.98-8L208.98-8 210.98-8Q210.78-8.85 210.78-10L210.78-10Q210.78-11.2 210.98-12L210.98-12 212.48-12Q212.28-12.85 212.28-14L212.28-14Q212.28-15.2 212.48-16L212.48-16 213.98-16Q213.78-16.85 213.78-18L213.78-18Q213.78-19.2 213.98-20L213.98-20Q213.78-20.85 213.78-22L213.78-22Q213.78-23.2 213.98-24L213.98-24Q213.78-24.85 213.78-26L213.78-26Q213.78-27.2 213.98-28L213.98-28 217.98-28Q218.18-27.2 218.18-26L218.18-26Q218.18-24.85 217.98-24L217.98-24ZM235.97-12L227.97-12Q228.17-11.2 228.17-10L228.17-10Q228.17-8.85 227.97-8L227.97-8Q228.17-7.2 228.17-6L228.17-6Q228.17-4.85 227.97-4L227.97-4 235.97-4Q236.17-3.2 236.17-2L236.17-2Q236.17-0.85 235.97 0L235.97 0 223.97 0Q223.77-0.85 223.77-2L223.77-2Q223.77-3.2 223.97-4L223.97-4Q223.77-4.85 223.77-6L223.77-6Q223.77-7.2 223.97-8L223.97-8Q223.77-8.85 223.77-10L223.77-10Q223.77-11.2 223.97-12L223.97-12Q223.77-12.85 223.77-14L223.77-14Q223.77-15.2 223.97-16L223.97-16Q223.77-16.85 223.77-18L223.77-18Q223.77-19.2 223.97-20L223.97-20Q223.77-20.85 223.77-22L223.77-22Q223.77-23.2 223.97-24L223.97-24Q223.77-24.85 223.77-26L223.77-26Q223.77-27.2 223.97-28L223.97-28 235.97-28Q236.17-27.2 236.17-26L236.17-26Q236.17-24.85 235.97-24L235.97-24 227.97-24Q228.17-23.2 228.17-22L228.17-22Q228.17-20.85 227.97-20L227.97-20Q228.17-19.2 228.17-18L228.17-18Q228.17-16.85 227.97-16L227.97-16 235.97-16Q236.17-15.2 236.17-14L236.17-14Q236.17-12.85 235.97-12L235.97-12ZM257.97-4Q258.17-3.2 258.17-2L258.17-2Q258.17-0.85 257.97 0L257.97 0 243.97 0Q243.77-0.85 243.77-2L243.77-2Q243.77-3.2 243.97-4L243.97-4Q243.77-4.85 243.77-6L243.77-6Q243.77-7.2 243.97-8L243.97-8Q243.77-8.85 243.77-10L243.77-10Q243.77-11.2 243.97-12L243.97-12Q243.77-12.85 243.77-14L243.77-14Q243.77-15.2 243.97-16L243.97-16Q243.77-16.85 243.77-18L243.77-18Q243.77-19.2 243.97-20L243.97-20Q243.77-20.85 243.77-22L243.77-22Q243.77-23.2 243.97-24L243.97-24Q243.77-24.85 243.77-26L243.77-26Q243.77-27.2 243.97-28L243.97-28 247.97-28Q248.17-27.2 248.17-26L248.17-26Q248.17-24.85 247.97-24L247.97-24Q248.17-23.2 248.17-22L248.17-22Q248.17-20.85 247.97-20L247.97-20Q248.17-19.2 248.17-18L248.17-18Q248.17-16.85 247.97-16L247.97-16Q248.17-15.2 248.17-14L248.17-14Q248.17-12.85 247.97-12L247.97-12Q248.17-11.2 248.17-10L248.17-10Q248.17-8.85 247.97-8L247.97-8Q248.17-7.2 248.17-6L248.17-6Q248.17-4.85 247.97-4L247.97-4 257.97-4ZM277.97-16Q278.17-15.2 278.17-14L278.17-14Q278.17-12.85 277.97-12L277.97-12Q278.17-11.2 278.17-10L278.17-10Q278.17-8.85 277.97-8L277.97-8 276.47-8Q276.67-7.2 276.67-6L276.67-6Q276.67-4.85 276.47-4L276.47-4 273.97-4Q274.17-3.2 274.17-2L274.17-2Q274.17-0.85 273.97 0L273.97 0 265.97 0Q265.77-0.85 265.77-2L265.77-2Q265.77-3.2 265.97-4L265.97-4 263.47-4Q263.27-4.85 263.27-6L263.27-6Q263.27-7.2 263.47-8L263.47-8 261.97-8Q261.77-8.85 261.77-10L261.77-10Q261.77-11.2 261.97-12L261.97-12Q261.77-12.85 261.77-14L261.77-14Q261.77-15.2 261.97-16L261.97-16Q261.77-16.85 261.77-18L261.77-18Q261.77-19.2 261.97-20L261.97-20 263.47-20Q263.27-20.85 263.27-22L263.27-22Q263.27-23.2 263.47-24L263.47-24 265.97-24Q265.77-24.85 265.77-26L265.77-26Q265.77-27.2 265.97-28L265.97-28 273.97-28Q274.17-27.2 274.17-26L274.17-26Q274.17-24.85 273.97-24L273.97-24 276.47-24Q276.67-23.2 276.67-22L276.67-22Q276.67-20.85 276.47-20L276.47-20 277.97-20Q278.17-19.2 278.17-18L278.17-18Q278.17-16.85 277.97-16L277.97-16ZM273.97-8Q273.77-8.85 273.77-10L273.77-10Q273.77-11.2 273.97-12L273.97-12Q273.77-12.85 273.77-14L273.77-14Q273.77-15.2 273.97-16L273.97-16Q273.77-16.85 273.77-18L273.77-18Q273.77-19.2 273.97-20L273.97-20 272.47-20Q272.27-20.85 272.27-22L272.27-22Q272.27-23.2 272.47-24L272.47-24 267.47-24Q267.67-23.2 267.67-22L267.67-22Q267.67-20.85 267.47-20L267.47-20 265.97-20Q266.17-19.2 266.17-18L266.17-18Q266.17-16.85 265.97-16L265.97-16Q266.17-15.2 266.17-14L266.17-14Q266.17-12.85 265.97-12L265.97-12Q266.17-11.2 266.17-10L266.17-10Q266.17-8.85 265.97-8L265.97-8 267.47-8Q267.67-7.2 267.67-6L267.67-6Q267.67-4.85 267.47-4L267.47-4 272.47-4Q272.27-4.85 272.27-6L272.27-6Q272.27-7.2 272.47-8L272.47-8 273.97-8ZM298.17-22Q298.17-20.85 297.97-20L297.97-20Q298.17-19.2 298.17-18L298.17-18Q298.17-16.85 297.97-16L297.97-16 295.97-16Q296.17-15.2 296.17-14L296.17-14Q296.17-12.85 295.97-12L295.97-12 285.97-12Q286.17-11.2 286.17-10L286.17-10Q286.17-8.85 285.97-8L285.97-8Q286.17-7.2 286.17-6L286.17-6Q286.17-4.85 285.97-4L285.97-4Q286.17-3.2 286.17-2L286.17-2Q286.17-0.85 285.97 0L285.97 0 281.97 0Q281.77-0.85 281.77-2L281.77-2Q281.77-3.2 281.97-4L281.97-4Q281.77-4.85 281.77-6L281.77-6Q281.77-7.2 281.97-8L281.97-8Q281.77-8.85 281.77-10L281.77-10Q281.77-11.2 281.97-12L281.97-12Q281.77-12.85 281.77-14L281.77-14Q281.77-15.2 281.97-16L281.97-16Q281.77-16.85 281.77-18L281.77-18Q281.77-19.2 281.97-20L281.97-20Q281.77-20.85 281.77-22L281.77-22Q281.77-23.2 281.97-24L281.97-24Q281.77-24.85 281.77-26L281.77-26Q281.77-27.2 281.97-28L281.97-28 295.97-28Q296.17-27.2 296.17-26L296.17-26Q296.17-24.85 295.97-24L295.97-24 297.97-24Q298.17-23.2 298.17-22L298.17-22ZM293.97-16Q293.77-16.85 293.77-18L293.77-18Q293.77-19.2 293.97-20L293.97-20Q293.77-20.85 293.77-22L293.77-22Q293.77-23.2 293.97-24L293.97-24 285.97-24Q286.17-23.2 286.17-22L286.17-22Q286.17-20.85 285.97-20L285.97-20Q286.17-19.2 286.17-18L286.17-18Q286.17-16.85 285.97-16L285.97-16 293.97-16ZM315.96-12L307.96-12Q308.16-11.2 308.16-10L308.16-10Q308.16-8.85 307.96-8L307.96-8Q308.16-7.2 308.16-6L308.16-6Q308.16-4.85 307.96-4L307.96-4 315.96-4Q316.16-3.2 316.16-2L316.16-2Q316.16-0.85 315.96 0L315.96 0 303.96 0Q303.76-0.85 303.76-2L303.76-2Q303.76-3.2 303.96-4L303.96-4Q303.76-4.85 303.76-6L303.76-6Q303.76-7.2 303.96-8L303.96-8Q303.76-8.85 303.76-10L303.76-10Q303.76-11.2 303.96-12L303.96-12Q303.76-12.85 303.76-14L303.76-14Q303.76-15.2 303.96-16L303.96-16Q303.76-16.85 303.76-18L303.76-18Q303.76-19.2 303.96-20L303.96-20Q303.76-20.85 303.76-22L303.76-22Q303.76-23.2 303.96-24L303.96-24Q303.76-24.85 303.76-26L303.76-26Q303.76-27.2 303.96-28L303.96-28 315.96-28Q316.16-27.2 316.16-26L316.16-26Q316.16-24.85 315.96-24L315.96-24 307.96-24Q308.16-23.2 308.16-22L308.16-22Q308.16-20.85 307.96-20L307.96-20Q308.16-19.2 308.16-18L308.16-18Q308.16-16.85 307.96-16L307.96-16 315.96-16Q316.16-15.2 316.16-14L316.16-14Q316.16-12.85 315.96-12L315.96-12ZM337.96-16Q338.16-15.2 338.16-14L338.16-14Q338.16-12.85 337.96-12L337.96-12Q338.16-11.2 338.16-10L338.16-10Q338.16-8.85 337.96-8L337.96-8 335.96-8Q336.16-7.2 336.16-6L336.16-6Q336.16-4.85 335.96-4L335.96-4 333.96-4Q334.16-3.2 334.16-2L334.16-2Q334.16-0.85 333.96 0L333.96 0 321.96 0Q321.76-0.85 321.76-2L321.76-2Q321.76-3.2 321.96-4L321.96-4Q321.76-4.85 321.76-6L321.76-6Q321.76-7.2 321.96-8L321.96-8Q321.76-8.85 321.76-10L321.76-10Q321.76-11.2 321.96-12L321.96-12Q321.76-12.85 321.76-14L321.76-14Q321.76-15.2 321.96-16L321.96-16Q321.76-16.85 321.76-18L321.76-18Q321.76-19.2 321.96-20L321.96-20Q321.76-20.85 321.76-22L321.76-22Q321.76-23.2 321.96-24L321.96-24Q321.76-24.85 321.76-26L321.76-26Q321.76-27.2 321.96-28L321.96-28 333.96-28Q334.16-27.2 334.16-26L334.16-26Q334.16-24.85 333.96-24L333.96-24 335.96-24Q336.16-23.2 336.16-22L336.16-22Q336.16-20.85 335.96-20L335.96-20 337.96-20Q338.16-19.2 338.16-18L338.16-18Q338.16-16.85 337.96-16L337.96-16ZM333.96-8Q333.76-8.85 333.76-10L333.76-10Q333.76-11.2 333.96-12L333.96-12Q333.76-12.85 333.76-14L333.76-14Q333.76-15.2 333.96-16L333.96-16Q333.76-16.85 333.76-18L333.76-18Q333.76-19.2 333.96-20L333.96-20 331.96-20Q331.76-20.85 331.76-22L331.76-22Q331.76-23.2 331.96-24L331.96-24 325.96-24Q326.16-23.2 326.16-22L326.16-22Q326.16-20.85 325.96-20L325.96-20Q326.16-19.2 326.16-18L326.16-18Q326.16-16.85 325.96-16L325.96-16Q326.16-15.2 326.16-14L326.16-14Q326.16-12.85 325.96-12L325.96-12Q326.16-11.2 326.16-10L326.16-10Q326.16-8.85 325.96-8L325.96-8Q326.16-7.2 326.16-6L326.16-6Q326.16-4.85 325.96-4L325.96-4 331.96-4Q331.76-4.85 331.76-6L331.76-6Q331.76-7.2 331.96-8L331.96-8 333.96-8Z" opacity="1" transform="matrix(1,0,0,1,0,0)" fill="#ffffff" class="wordmark-text-0" data-fill-palette-color="primary" id="text-0"></path></svg></g></svg></g></svg></g></svg></g></svg></g></svg></g><path d="M167.989 107.427L167.989 41.553 3.895 41.553 3.895 205.647 167.989 205.647 167.989 139.773 166.155 139.773 166.155 203.813 5.729 203.813 5.729 43.387 166.155 43.387 166.155 107.427Z" fill="#ffffff" stroke="transparent" data-fill-palette-color="tertiary"></path></svg></g><defs></defs></svg><rect width="395.52" height="247.2" fill="none" stroke="none" visibility="hidden"></rect></g></svg></g></svg>